<?xml version="1.0" encoding="UTF-8" standalone="no"?>
<!-- Created with Inkscape (http://www.inkscape.org/) -->

<svg
   xmlns:dc="http://purl.org/dc/elements/1.1/"
   xmlns:cc="http://creativecommons.org/ns#"
   xmlns:rdf="http://www.w3.org/1999/02/22-rdf-syntax-ns#"
   xmlns:svg="http://www.w3.org/2000/svg"
   xmlns="http://www.w3.org/2000/svg"
   xmlns:sodipodi="http://sodipodi.sourceforge.net/DTD/sodipodi-0.dtd"
   xmlns:inkscape="http://www.inkscape.org/namespaces/inkscape"
   id="svg274659"
   version="1.1"
   inkscape:version="0.91 r13725"
   xml:space="preserve"
   width="4.0999999in"
   height="2.5in"
   viewBox="0 0 368.99999 225"
   sodipodi:docname="4_PPfit.svg"><metadata
     id="metadata274665"><rdf:RDF><cc:Work
         rdf:about=""><dc:format>image/svg+xml</dc:format><dc:type
           rdf:resource="http://purl.org/dc/dcmitype/StillImage" /><dc:title></dc:title></cc:Work></rdf:RDF></metadata><defs
     id="defs274663" /><sodipodi:namedview
     pagecolor="#ffffff"
     bordercolor="#666666"
     borderopacity="1"
     objecttolerance="10"
     gridtolerance="10"
     guidetolerance="10"
     inkscape:pageopacity="0"
     inkscape:pageshadow="2"
     inkscape:window-width="1920"
     inkscape:window-height="1018"
     id="namedview274661"
     showgrid="false"
     inkscape:zoom="1.5523018"
     inkscape:cx="157.68714"
     inkscape:cy="49.074985"
     inkscape:window-x="1272"
     inkscape:window-y="-8"
     inkscape:window-maximized="1"
     inkscape:current-layer="g274667"
     units="in" /><g
     id="g274667"
     inkscape:groupmode="layer"
     inkscape:label="Fig_PPfit"
     transform="matrix(1.25,0,0,-1.25,0,225)"><g
       id="g274669"
       transform="matrix(1.2762815,0,0,1.2762815,-4.4006789,-0.35213026)"><g
         id="g274671"
         transform="matrix(1,0,0,-1,0,144)"><path
           d="m 23.258,120.273 0.058,-0.019 0.059,-0.024 0.352,-0.128 0.468,-0.176 0.942,-0.348 1.875,-0.711 4.07,-1.562 3.801,-1.492 3.722,-1.493 4.043,-1.656 3.77,-1.57 4.086,-1.739 4.016,-1.734 3.742,-1.644 4.058,-1.813 3.789,-1.719 3.711,-1.711 4.032,-1.886 3.761,-1.782 4.075,-1.964 4.003,-1.957 3.731,-1.852 4.047,-2.043 3.777,-1.934 4.094,-2.132 4.019,-2.125 3.75,-2.02 4.067,-2.23 3.797,-2.118 3.718,-2.113 4.039,-2.336 3.766,-2.226 4.082,-2.465 4.008,-2.469 3.738,-2.359 4.055,-2.614 3.785,-2.5 3.711,-2.507 4.027,-2.789 3.754,-2.672 4.074,-2.977 3.801,-2.851 3.727,-2.875 4.047,-3.211 3.773,-3.082 4.09,-3.446 4.012,-3.488 3.746,-3.356 4.062,-3.757 3.793,-3.621 3.715,-3.664 4.031,-4.11 2.426,-2.551"
           style="fill:none;stroke:#000000;stroke-width:0.75040001;stroke-linecap:square;stroke-linejoin:miter;stroke-miterlimit:3.25;stroke-dasharray:none;stroke-opacity:1"
           id="path274673"
           inkscape:connector-curvature="0" /></g><g
         id="g274675"
         transform="matrix(1,0,0,-1,0,144)"><path
           d="m 23.246,8.715 0.117,0.211 0.121,0.211 0.704,1.265 0.937,1.676 1.879,3.328 4.07,7.082 3.801,6.453 3.727,6.164 4.043,6.5 3.773,5.887 4.09,6.172 4.012,5.844 3.746,5.25 4.058,5.469 3.793,4.89 3.715,4.578 4.031,4.727 3.762,4.176 4.078,4.261 4.004,3.911 3.734,3.398 4.051,3.402 3.778,2.907 4.097,2.847 4.02,2.481 3.75,2.031 0.066,0.031 0.445,0.223 0.508,0.246 1.016,0.48 2.035,0.903 0.059,0.023 0.058,0.028 0.117,0.046 0.239,0.102 0.476,0.191 0.946,0.371 0.062,0.024 0.059,0.023 0.117,0.043 0.238,0.09 0.477,0.172 0.949,0.336 0.055,0.02 0.41,0.136 0.465,0.153 0.929,0.293 0.059,0.019 0.058,0.016 0.118,0.035 0.23,0.066 0.465,0.137 0.934,0.254 0.062,0.016 0.063,0.019 0.125,0.031 0.253,0.067 0.504,0.125 1.012,0.234 0.063,0.012 0.062,0.015 0.125,0.028 0.254,0.054 0.504,0.102 1.008,0.191 0.062,0.008 0.059,0.012 0.117,0.019 0.234,0.043 0.473,0.075 0.059,0.007 0.058,0.012 0.117,0.016 0.235,0.035 0.472,0.066 0.235,0.032 0.238,0.031 0.469,0.058 0.117,0.016 0.117,0.012 0.239,0.027 0.468,0.047 0.067,0.008 0.062,0.008 0.129,0.011 0.254,0.024 0.062,0.008 0.067,0.007 0.125,0.008 0.258,0.02 0.125,0.015 0.129,0.008 0.254,0.02 0.066,0.008 0.062,0 0.129,0.007 0.254,0.012 0.129,0 0.125,0.008 0.129,0 0.129,0.008 0.125,0 0.129,0.008 1.023,0 0.063,0.003 0.566,0 0.063,-0.003 0.941,0 0.125,-0.008 0.125,0 0.125,-0.008 0.25,-0.012 0.125,0 0.125,-0.008 0.254,-0.011 0.125,0 0.375,-0.024 0.125,-0.015 0.125,-0.008 0.25,-0.02 0.504,-0.043 0.059,-0.008 0.054,-0.007 0.821,-0.082 0.058,-0.008 0.059,-0.012 0.117,-0.012 0.234,-0.027 0.465,-0.059 0.117,-0.015 0.117,-0.02 0.235,-0.031 0.469,-0.07 0.933,-0.153 0.063,-0.011 0.066,-0.012 0.125,-0.023 0.254,-0.047 0.508,-0.098 1.012,-0.215 0.066,-0.015 0.187,-0.047 0.254,-0.059 0.508,-0.121 1.012,-0.266 0.062,-0.015 0.176,-0.047 0.238,-0.067 0.473,-0.136 0.945,-0.293 0.059,-0.016 0.059,-0.019 0.121,-0.039 0.234,-0.079 0.473,-0.156 0.949,-0.336 0.059,-0.019 0.054,-0.024 0.117,-0.043 0.231,-0.086 0.465,-0.175 0.929,-0.368 1.856,-0.804 0.062,-0.028 0.063,-0.031 0.125,-0.055 0.254,-0.117 0.504,-0.238 1.008,-0.496 2.011,-1.067 0.059,-0.035 0.058,-0.031 0.352,-0.199 0.473,-0.27 0.937,-0.554 1.879,-1.176 4.074,-2.863 3.805,-3.063 3.73,-3.371 4.043,-4.082 3.778,-4.207 4.09,-5.008 4.015,-5.371 3.75,-5.422 4.063,-6.34 3.793,-6.351 3.718,-6.641 4.036,-7.672 3.761,-7.609 0.133,-0.274 0.129,-0.273 0.266,-0.547 0.523,-1.105 1.051,-2.235 0.133,-0.281 0.129,-0.285 0.265,-0.567 0.524,-1.136 0.066,-0.145 0.066,-0.14 0.129,-0.29 0.266,-0.574 0.062,-0.144 0.266,-0.578 0.063,-0.145 0.132,-0.289"
           style="fill:none;stroke:#e64c4c;stroke-width:0.88030797;stroke-linecap:square;stroke-linejoin:miter;stroke-miterlimit:3.25;stroke-dasharray:none;stroke-opacity:1"
           id="path274677"
           inkscape:connector-curvature="0" /></g><g
         id="g274679"
         transform="matrix(1,0,0,-1,0,144)"><path
           d="m 23.246,17.285 0.117,0.211 0.121,0.207 0.235,0.414 0.469,0.824 0.937,1.637 1.879,3.231 4.07,6.777 3.801,6.059 3.727,5.699 4.043,5.914 3.773,5.285 4.09,5.48 4.012,5.153 3.746,4.601 4.058,4.793 3.793,4.289 3.715,4.036 4.031,4.195 3.762,3.738 4.078,3.856 4.004,3.586 3.734,3.156 4.051,3.203 3.778,2.773 4.097,2.758 4.02,2.438 3.75,2.023 0.066,0.031 0.063,0.032 0.125,0.066 0.257,0.125 0.508,0.25 1.016,0.484 2.035,0.914 0.059,0.024 0.058,0.027 0.117,0.051 0.239,0.098 0.476,0.199 0.946,0.379 1.902,0.707 0.055,0.023 0.175,0.059 0.235,0.082 0.465,0.156 0.929,0.305 0.059,0.015 0.176,0.059 0.23,0.07 0.465,0.141 0.934,0.266 0.062,0.015 0.063,0.02 0.125,0.035 0.253,0.066 0.504,0.129 1.012,0.246 0.125,0.032 0.125,0.027 0.254,0.059 0.504,0.109 1.008,0.199 0.062,0.012 0.176,0.035 0.234,0.043 0.473,0.078 0.059,0.012 0.058,0.008 0.352,0.058 0.472,0.071 0.118,0.015 0.117,0.02 0.238,0.031 0.586,0.078 0.117,0.012 0.239,0.031 0.468,0.051 0.067,0.008 0.062,0.007 0.129,0.012 0.254,0.024 0.062,0.007 0.067,0.008 0.125,0.012 0.258,0.023 0.125,0.016 0.129,0.008 0.257,0.019 0.125,0.016 0.129,0.008 0.254,0.015 0.067,0 0.062,0.008 0.125,0.008 0.129,0 0.129,0.008 0.129,0 0.125,0.008 0.129,0 0.129,0.007 0.828,0 0.062,0.004 1.008,0 0.063,-0.004 0.941,0 0.125,-0.007 0.125,0 0.125,-0.008 0.25,-0.012 0.125,0 0.125,-0.008 0.25,-0.011 0.063,-0.008 0.062,-0.012 0.375,-0.023 0.504,-0.043 0.117,-0.016 0.117,-0.008 0.235,-0.023 0.465,-0.047 0.117,-0.016 0.117,-0.011 0.234,-0.028 0.469,-0.058 0.055,-0.008 0.062,-0.008 0.113,-0.016 0.235,-0.035 0.469,-0.066 0.933,-0.153 0.067,-0.011 0.187,-0.035 0.254,-0.047 0.508,-0.098 1.015,-0.215 0.063,-0.015 0.062,-0.012 0.125,-0.031 0.254,-0.059 0.508,-0.125 1.016,-0.266 0.117,-0.031 0.117,-0.035 0.238,-0.066 0.473,-0.137 0.945,-0.293 0.059,-0.02 0.063,-0.019 0.117,-0.039 0.238,-0.078 0.473,-0.161 0.945,-0.339 0.059,-0.02 0.058,-0.023 0.113,-0.043 0.235,-0.09 0.465,-0.18 0.925,-0.375 1.856,-0.82 0.062,-0.027 0.067,-0.032 0.125,-0.058 0.25,-0.121 0.504,-0.243 1.008,-0.507 2.011,-1.094 0.059,-0.035 0.058,-0.032 0.122,-0.066 0.234,-0.137 0.469,-0.277 0.937,-0.574 1.879,-1.215 4.074,-2.984 3.805,-3.227 3.73,-3.598 4.043,-4.422 3.778,-4.648 4.09,-5.66 4.019,-6.235 3.746,-6.457 4.063,-7.761 3.793,-7.989 3.718,-8.558 4.036,-10.11 3.765,-10.183 0.063,-0.184 0.199,-0.551 0.262,-0.742 0.523,-1.488 1.051,-3.012 0.133,-0.383 0.132,-0.378 0.262,-0.766 0.524,-1.539 0.132,-0.383 0.129,-0.391 0.266,-0.773 0.062,-0.195 0.2,-0.586 0.066,-0.192 0.063,-0.195 0.066,-0.195 0.066,-0.199"
           style="fill:none;stroke:#0000ff;stroke-width:1.51324904;stroke-linecap:square;stroke-linejoin:miter;stroke-miterlimit:3.25;stroke-dasharray:5.044166, 7.566249;stroke-dashoffset:0;stroke-opacity:1"
           id="path274681"
           inkscape:connector-curvature="0" /></g><g
         id="g274683"
         transform="matrix(1,0,0,-1,0,144)"><path
           d="m 56.594,15.793 11.551,0"
           style="fill:none;stroke:#e64c4c;stroke-width:0.88030797;stroke-linecap:square;stroke-linejoin:miter;stroke-miterlimit:3.25;stroke-dasharray:none;stroke-opacity:1"
           id="path274685"
           inkscape:connector-curvature="0" /></g><text
         transform="matrix(1,0,0,-0.99897528,14.110061,21.366051)"
         style="font-variant:normal;font-weight:normal;font-size:8.00410175px;font-family:'Times New Roman';-inkscape-font-specification:TimesNewRomanPSMT;writing-mode:lr-tb;fill:#000000;fill-opacity:1;fill-rule:nonzero;stroke:none"
         id="text274687"><tspan
           x="0"
           y="0"
           id="tspan274689">0</tspan><tspan
           x="0.6917609"
           y="-25.003199"
           id="tspan274691">1</tspan><tspan
           x="0.046899237"
           y="-50.053196"
           id="tspan274693">2</tspan><tspan
           x="0.37910068"
           y="-75.15004"
           id="tspan274695">3</tspan><tspan
           x="-0.0078160055"
           y="-100.15309"
           id="tspan274697">4</tspan></text>
<g
         id="g274699"
         transform="matrix(1,0,0,-1,0,144)"><path
           d="m 56.594,42.832 11.312,0"
           style="fill:none;stroke:#000000;stroke-width:0.88030797;stroke-linecap:square;stroke-linejoin:miter;stroke-miterlimit:3.25;stroke-dasharray:none;stroke-opacity:1"
           id="path274701"
           inkscape:connector-curvature="0" /></g><text
         transform="matrix(1,0,0,-0.99896728,127.37932,13.999788)"
         style="font-variant:normal;font-weight:normal;font-size:8.00413418px;font-family:'Times New Roman';-inkscape-font-specification:TimesNewRomanPSMT;writing-mode:lr-tb;fill:#000000;fill-opacity:1;fill-rule:nonzero;stroke:none"
         id="text274703"><tspan
           x="0 4.2021704 6.2992535 27.662287 31.864458 33.969543 54.764286 58.966454 61.063538 82.426575 86.628746 88.733833"
           y="0"
           sodipodi:role="line"
           id="tspan274705">0.00.51.01.5</tspan><tspan
           x="91.853638 94.51902"
           y="-11.588994"
           sodipodi:role="line"
           id="tspan274707">-4</tspan><tspan
           x="91.908356 94.57373"
           y="-36.01709"
           sodipodi:role="line"
           id="tspan274709">-2</tspan><tspan
           x="94.534714"
           y="-60.491737"
           id="tspan274711">0</tspan><tspan
           x="94.581612"
           y="-84.872597"
           id="tspan274713">2</tspan><tspan
           x="94.526894"
           y="-109.3004"
           id="tspan274715">4</tspan></text>
<path
         d="m 29.535,27.676 c 0,0.285 -0.152,0.562 -0.426,0.765 -0.269,0.2 -0.636,0.317 -1.019,0.317 -0.383,0 -0.754,-0.117 -1.024,-0.317 -0.269,-0.203 -0.421,-0.48 -0.421,-0.765 0,-0.285 0.152,-0.563 0.421,-0.766 0.27,-0.203 0.641,-0.316 1.024,-0.316 0.383,0 0.75,0.113 1.019,0.316 0.274,0.203 0.426,0.481 0.426,0.766 z"
         style="fill:#4c4ce6;fill-opacity:1;fill-rule:evenodd;stroke:none"
         id="path274717"
         inkscape:connector-curvature="0" /><path
         d="m 34.828,29.656 c 0,0.285 -0.152,0.563 -0.426,0.762 -0.269,0.203 -0.636,0.316 -1.019,0.316 -0.383,0 -0.754,-0.113 -1.024,-0.316 -0.269,-0.199 -0.421,-0.477 -0.421,-0.762 0,-0.289 0.152,-0.562 0.421,-0.765 0.27,-0.203 0.641,-0.317 1.024,-0.317 0.383,0 0.75,0.114 1.019,0.317 0.274,0.203 0.426,0.476 0.426,0.765 z"
         style="fill:#4c4ce6;fill-opacity:1;fill-rule:evenodd;stroke:none"
         id="path274719"
         inkscape:connector-curvature="0" /><path
         d="m 40.121,32.129 c 0,0.289 -0.152,0.562 -0.426,0.766 -0.269,0.203 -0.636,0.316 -1.019,0.316 -0.383,0 -0.75,-0.113 -1.024,-0.316 -0.269,-0.204 -0.422,-0.477 -0.422,-0.766 0,-0.285 0.153,-0.563 0.422,-0.762 0.274,-0.203 0.641,-0.316 1.024,-0.316 0.383,0 0.75,0.113 1.019,0.316 0.274,0.199 0.426,0.477 0.426,0.762 z"
         style="fill:#4c4ce6;fill-opacity:1;fill-rule:evenodd;stroke:none"
         id="path274721"
         inkscape:connector-curvature="0" /><path
         d="m 44.75,34.109 c 0,0.286 -0.152,0.563 -0.422,0.766 -0.269,0.203 -0.637,0.316 -1.019,0.316 -0.387,0 -0.754,-0.113 -1.024,-0.316 -0.269,-0.203 -0.422,-0.48 -0.422,-0.766 0,-0.285 0.153,-0.562 0.422,-0.765 0.27,-0.199 0.637,-0.317 1.024,-0.317 0.382,0 0.75,0.118 1.019,0.317 0.27,0.203 0.422,0.48 0.422,0.765 z"
         style="fill:#4c4ce6;fill-opacity:1;fill-rule:evenodd;stroke:none"
         id="path274723"
         inkscape:connector-curvature="0" /><path
         d="m 50.043,36.09 c 0,0.285 -0.148,0.562 -0.422,0.765 -0.269,0.2 -0.637,0.317 -1.019,0.317 -0.383,0 -0.754,-0.117 -1.024,-0.317 -0.269,-0.203 -0.422,-0.48 -0.422,-0.765 0,-0.285 0.153,-0.563 0.422,-0.766 0.27,-0.203 0.641,-0.316 1.024,-0.316 0.382,0 0.75,0.113 1.019,0.316 0.274,0.203 0.422,0.481 0.422,0.766 z"
         style="fill:#4c4ce6;fill-opacity:1;fill-rule:evenodd;stroke:none"
         id="path274725"
         inkscape:connector-curvature="0" /><path
         d="m 55.34,38.07 c 0,0.285 -0.152,0.563 -0.426,0.762 -0.269,0.203 -0.637,0.316 -1.019,0.316 -0.383,0 -0.754,-0.113 -1.024,-0.316 -0.269,-0.199 -0.422,-0.477 -0.422,-0.762 0,-0.289 0.153,-0.562 0.422,-0.765 0.27,-0.203 0.641,-0.317 1.024,-0.317 0.382,0 0.75,0.114 1.019,0.317 0.274,0.203 0.426,0.476 0.426,0.765 z"
         style="fill:#4c4ce6;fill-opacity:1;fill-rule:evenodd;stroke:none"
         id="path274727"
         inkscape:connector-curvature="0" /><path
         d="m 60.633,40.543 c 0,0.289 -0.153,0.562 -0.426,0.766 -0.269,0.203 -0.637,0.316 -1.019,0.316 -0.383,0 -0.75,-0.113 -1.024,-0.316 -0.269,-0.204 -0.422,-0.477 -0.422,-0.766 0,-0.285 0.153,-0.563 0.422,-0.762 0.274,-0.203 0.641,-0.316 1.024,-0.316 0.382,0 0.75,0.113 1.019,0.316 0.273,0.199 0.426,0.477 0.426,0.762 z"
         style="fill:#4c4ce6;fill-opacity:1;fill-rule:evenodd;stroke:none"
         id="path274729"
         inkscape:connector-curvature="0" /><path
         d="m 65.262,42.523 c 0,0.286 -0.153,0.563 -0.422,0.766 -0.27,0.203 -0.637,0.316 -1.024,0.316 -0.382,0 -0.75,-0.113 -1.019,-0.316 -0.274,-0.203 -0.422,-0.48 -0.422,-0.766 0,-0.285 0.148,-0.562 0.422,-0.765 0.269,-0.199 0.637,-0.317 1.019,-0.317 0.387,0 0.754,0.118 1.024,0.317 0.269,0.203 0.422,0.48 0.422,0.765 z"
         style="fill:#4c4ce6;fill-opacity:1;fill-rule:evenodd;stroke:none"
         id="path274731"
         inkscape:connector-curvature="0" /><path
         d="m 70.555,45 c 0,0.285 -0.153,0.559 -0.422,0.762 -0.27,0.203 -0.637,0.316 -1.02,0.316 -0.386,0 -0.754,-0.113 -1.023,-0.316 -0.27,-0.203 -0.422,-0.477 -0.422,-0.762 0,-0.289 0.152,-0.562 0.422,-0.766 0.269,-0.203 0.637,-0.316 1.023,-0.316 0.383,0 0.75,0.113 1.02,0.316 0.269,0.204 0.422,0.477 0.422,0.766 z"
         style="fill:#4c4ce6;fill-opacity:1;fill-rule:evenodd;stroke:none"
         id="path274733"
         inkscape:connector-curvature="0" /><path
         d="m 75.848,46.977 c 0,0.289 -0.149,0.562 -0.422,0.765 -0.27,0.203 -0.637,0.317 -1.02,0.317 -0.383,0 -0.754,-0.114 -1.023,-0.317 -0.27,-0.203 -0.422,-0.476 -0.422,-0.765 0,-0.286 0.152,-0.559 0.422,-0.762 0.269,-0.203 0.64,-0.317 1.023,-0.317 0.383,0 0.75,0.114 1.02,0.317 0.273,0.203 0.422,0.476 0.422,0.762 z"
         style="fill:#4c4ce6;fill-opacity:1;fill-rule:evenodd;stroke:none"
         id="path274735"
         inkscape:connector-curvature="0" /><path
         d="m 80.48,49.453 c 0,0.285 -0.152,0.563 -0.421,0.766 -0.27,0.203 -0.641,0.316 -1.024,0.316 -0.383,0 -0.75,-0.113 -1.019,-0.316 -0.274,-0.203 -0.426,-0.481 -0.426,-0.766 0,-0.285 0.152,-0.562 0.426,-0.765 0.269,-0.204 0.636,-0.317 1.019,-0.317 0.383,0 0.754,0.113 1.024,0.317 0.269,0.203 0.421,0.48 0.421,0.765 z"
         style="fill:#4c4ce6;fill-opacity:1;fill-rule:evenodd;stroke:none"
         id="path274737"
         inkscape:connector-curvature="0" /><path
         d="m 85.773,51.434 c 0,0.285 -0.152,0.562 -0.421,0.761 -0.27,0.203 -0.641,0.321 -1.024,0.321 -0.383,0 -0.75,-0.118 -1.019,-0.321 -0.274,-0.199 -0.422,-0.476 -0.422,-0.761 0,-0.289 0.148,-0.563 0.422,-0.766 0.269,-0.203 0.636,-0.316 1.019,-0.316 0.383,0 0.754,0.113 1.024,0.316 0.269,0.203 0.421,0.477 0.421,0.766 z"
         style="fill:#4c4ce6;fill-opacity:1;fill-rule:evenodd;stroke:none"
         id="path274739"
         inkscape:connector-curvature="0" /><path
         d="m 91.066,53.906 c 0,0.289 -0.152,0.563 -0.421,0.766 -0.27,0.203 -0.637,0.316 -1.024,0.316 -0.383,0 -0.75,-0.113 -1.019,-0.316 -0.274,-0.203 -0.422,-0.477 -0.422,-0.766 0,-0.285 0.148,-0.558 0.422,-0.761 0.269,-0.204 0.636,-0.317 1.019,-0.317 0.387,0 0.754,0.113 1.024,0.317 0.269,0.203 0.421,0.476 0.421,0.761 z"
         style="fill:#4c4ce6;fill-opacity:1;fill-rule:evenodd;stroke:none"
         id="path274741"
         inkscape:connector-curvature="0" /><path
         d="m 95.699,56.383 c 0,0.285 -0.152,0.562 -0.422,0.765 -0.273,0.2 -0.64,0.317 -1.023,0.317 -0.383,0 -0.75,-0.117 -1.02,-0.317 -0.273,-0.203 -0.425,-0.48 -0.425,-0.765 0,-0.285 0.152,-0.563 0.425,-0.766 0.27,-0.203 0.637,-0.316 1.02,-0.316 0.383,0 0.75,0.113 1.023,0.316 0.27,0.203 0.422,0.481 0.422,0.766 z"
         style="fill:#4c4ce6;fill-opacity:1;fill-rule:evenodd;stroke:none"
         id="path274743"
         inkscape:connector-curvature="0" /><path
         d="m 100.992,58.855 c 0,0.29 -0.152,0.563 -0.422,0.766 -0.273,0.203 -0.64,0.317 -1.023,0.317 -0.383,0 -0.75,-0.114 -1.02,-0.317 -0.273,-0.203 -0.425,-0.476 -0.425,-0.766 0,-0.285 0.152,-0.558 0.425,-0.761 0.27,-0.203 0.637,-0.317 1.02,-0.317 0.383,0 0.75,0.114 1.023,0.317 0.27,0.203 0.422,0.476 0.422,0.761 z"
         style="fill:#4c4ce6;fill-opacity:1;fill-rule:evenodd;stroke:none"
         id="path274745"
         inkscape:connector-curvature="0" /><path
         d="m 106.285,61.332 c 0,0.285 -0.152,0.563 -0.422,0.766 -0.269,0.203 -0.64,0.316 -1.023,0.316 -0.383,0 -0.75,-0.113 -1.02,-0.316 -0.273,-0.203 -0.425,-0.481 -0.425,-0.766 0,-0.285 0.152,-0.562 0.425,-0.766 0.27,-0.203 0.637,-0.316 1.02,-0.316 0.383,0 0.754,0.113 1.023,0.316 0.27,0.204 0.422,0.481 0.422,0.766 z"
         style="fill:#4c4ce6;fill-opacity:1;fill-rule:evenodd;stroke:none"
         id="path274747"
         inkscape:connector-curvature="0" /><path
         d="m 111.578,63.805 c 0,0.289 -0.152,0.562 -0.422,0.765 -0.269,0.203 -0.64,0.317 -1.023,0.317 -0.383,0 -0.75,-0.114 -1.02,-0.317 -0.273,-0.203 -0.422,-0.476 -0.422,-0.765 0,-0.285 0.149,-0.559 0.422,-0.762 0.27,-0.203 0.637,-0.316 1.02,-0.316 0.383,0 0.754,0.113 1.023,0.316 0.27,0.203 0.422,0.477 0.422,0.762 z"
         style="fill:#4c4ce6;fill-opacity:1;fill-rule:evenodd;stroke:none"
         id="path274749"
         inkscape:connector-curvature="0" /><path
         d="m 116.211,66.777 c 0,0.286 -0.152,0.563 -0.422,0.762 -0.273,0.203 -0.641,0.316 -1.023,0.316 -0.383,0 -0.75,-0.113 -1.02,-0.316 -0.273,-0.199 -0.426,-0.476 -0.426,-0.762 0,-0.289 0.153,-0.562 0.426,-0.765 0.27,-0.203 0.637,-0.317 1.02,-0.317 0.382,0 0.75,0.114 1.023,0.317 0.27,0.203 0.422,0.476 0.422,0.765 z"
         style="fill:#4c4ce6;fill-opacity:1;fill-rule:evenodd;stroke:none"
         id="path274751"
         inkscape:connector-curvature="0" /><path
         d="m 121.504,69.25 c 0,0.289 -0.152,0.563 -0.422,0.766 -0.273,0.203 -0.641,0.316 -1.023,0.316 -0.383,0 -0.75,-0.113 -1.02,-0.316 -0.273,-0.203 -0.426,-0.477 -0.426,-0.766 0,-0.285 0.153,-0.562 0.426,-0.762 0.27,-0.203 0.637,-0.316 1.02,-0.316 0.382,0 0.75,0.113 1.023,0.316 0.27,0.2 0.422,0.477 0.422,0.762 z"
         style="fill:#4c4ce6;fill-opacity:1;fill-rule:evenodd;stroke:none"
         id="path274753"
         inkscape:connector-curvature="0" /><path
         d="m 126.797,72.223 c 0,0.285 -0.152,0.558 -0.422,0.761 -0.273,0.204 -0.641,0.317 -1.023,0.317 -0.383,0 -0.75,-0.113 -1.02,-0.317 -0.273,-0.203 -0.426,-0.476 -0.426,-0.761 0,-0.289 0.153,-0.563 0.426,-0.766 0.27,-0.203 0.637,-0.316 1.02,-0.316 0.382,0 0.75,0.113 1.023,0.316 0.27,0.203 0.422,0.477 0.422,0.766 z"
         style="fill:#4c4ce6;fill-opacity:1;fill-rule:evenodd;stroke:none"
         id="path274755"
         inkscape:connector-curvature="0" /><path
         d="m 131.43,75.191 c 0,0.286 -0.153,0.563 -0.426,0.762 -0.27,0.203 -0.637,0.317 -1.02,0.317 -0.382,0 -0.75,-0.114 -1.023,-0.317 -0.27,-0.199 -0.422,-0.476 -0.422,-0.762 0,-0.289 0.152,-0.562 0.422,-0.765 0.273,-0.203 0.641,-0.317 1.023,-0.317 0.383,0 0.75,0.114 1.02,0.317 0.273,0.203 0.426,0.476 0.426,0.765 z"
         style="fill:#4c4ce6;fill-opacity:1;fill-rule:evenodd;stroke:none"
         id="path274757"
         inkscape:connector-curvature="0" /><path
         d="m 136.723,78.16 c 0,0.285 -0.153,0.563 -0.422,0.766 -0.274,0.203 -0.641,0.316 -1.024,0.316 -0.382,0 -0.75,-0.113 -1.019,-0.316 -0.274,-0.203 -0.426,-0.481 -0.426,-0.766 0,-0.285 0.152,-0.562 0.426,-0.765 0.269,-0.204 0.637,-0.317 1.019,-0.317 0.383,0 0.75,0.113 1.024,0.317 0.269,0.203 0.422,0.48 0.422,0.765 z"
         style="fill:#4c4ce6;fill-opacity:1;fill-rule:evenodd;stroke:none"
         id="path274759"
         inkscape:connector-curvature="0" /><path
         d="m 142.016,81.129 c 0,0.289 -0.153,0.562 -0.422,0.766 -0.274,0.203 -0.641,0.316 -1.024,0.316 -0.382,0 -0.75,-0.113 -1.019,-0.316 -0.274,-0.204 -0.426,-0.477 -0.426,-0.766 0,-0.285 0.152,-0.563 0.426,-0.762 0.269,-0.203 0.637,-0.316 1.019,-0.316 0.383,0 0.75,0.113 1.024,0.316 0.269,0.199 0.422,0.477 0.422,0.762 z"
         style="fill:#4c4ce6;fill-opacity:1;fill-rule:evenodd;stroke:none"
         id="path274761"
         inkscape:connector-curvature="0" /><path
         d="m 146.648,84.594 c 0,0.289 -0.152,0.562 -0.425,0.765 -0.27,0.204 -0.637,0.317 -1.02,0.317 -0.383,0 -0.75,-0.113 -1.023,-0.317 -0.27,-0.203 -0.422,-0.476 -0.422,-0.765 0,-0.285 0.152,-0.563 0.422,-0.762 0.273,-0.203 0.64,-0.32 1.023,-0.32 0.383,0 0.75,0.117 1.02,0.32 0.273,0.199 0.425,0.477 0.425,0.762 z"
         style="fill:#4c4ce6;fill-opacity:1;fill-rule:evenodd;stroke:none"
         id="path274763"
         inkscape:connector-curvature="0" /><path
         d="m 151.941,88.059 c 0,0.285 -0.152,0.562 -0.425,0.765 -0.27,0.203 -0.637,0.317 -1.02,0.317 -0.383,0 -0.75,-0.114 -1.023,-0.317 -0.27,-0.203 -0.422,-0.48 -0.422,-0.765 0,-0.286 0.152,-0.563 0.422,-0.762 0.273,-0.203 0.64,-0.32 1.023,-0.32 0.383,0 0.75,0.117 1.02,0.32 0.273,0.199 0.425,0.476 0.425,0.762 z"
         style="fill:#4c4ce6;fill-opacity:1;fill-rule:evenodd;stroke:none"
         id="path274765"
         inkscape:connector-curvature="0" /><path
         d="m 157.234,91.523 c 0,0.286 -0.152,0.563 -0.425,0.766 -0.27,0.203 -0.637,0.316 -1.02,0.316 -0.383,0 -0.75,-0.113 -1.023,-0.316 -0.27,-0.203 -0.422,-0.48 -0.422,-0.766 0,-0.285 0.152,-0.562 0.422,-0.765 0.273,-0.203 0.64,-0.317 1.023,-0.317 0.383,0 0.75,0.114 1.02,0.317 0.273,0.203 0.425,0.48 0.425,0.765 z"
         style="fill:#4c4ce6;fill-opacity:1;fill-rule:evenodd;stroke:none"
         id="path274767"
         inkscape:connector-curvature="0" /><path
         d="m 162.527,94.988 c 0,0.285 -0.152,0.563 -0.422,0.766 -0.273,0.203 -0.64,0.316 -1.023,0.316 -0.383,0 -0.75,-0.113 -1.019,-0.316 -0.274,-0.203 -0.426,-0.481 -0.426,-0.766 0,-0.285 0.152,-0.562 0.426,-0.765 0.269,-0.203 0.636,-0.317 1.019,-0.317 0.383,0 0.75,0.114 1.023,0.317 0.27,0.203 0.422,0.48 0.422,0.765 z"
         style="fill:#4c4ce6;fill-opacity:1;fill-rule:evenodd;stroke:none"
         id="path274769"
         inkscape:connector-curvature="0" /><path
         d="m 167.16,98.949 c 0,0.285 -0.152,0.559 -0.426,0.762 -0.269,0.203 -0.636,0.316 -1.019,0.316 -0.383,0 -0.75,-0.113 -1.024,-0.316 -0.269,-0.203 -0.421,-0.477 -0.421,-0.762 0,-0.289 0.152,-0.562 0.421,-0.765 0.274,-0.204 0.641,-0.317 1.024,-0.317 0.383,0 0.75,0.113 1.019,0.317 0.274,0.203 0.426,0.476 0.426,0.765 z"
         style="fill:#4c4ce6;fill-opacity:1;fill-rule:evenodd;stroke:none"
         id="path274771"
         inkscape:connector-curvature="0" /><path
         d="m 172.453,102.414 c 0,0.285 -0.152,0.559 -0.426,0.762 -0.269,0.203 -0.636,0.316 -1.019,0.316 -0.383,0 -0.75,-0.113 -1.024,-0.316 -0.269,-0.203 -0.421,-0.477 -0.421,-0.762 0,-0.289 0.152,-0.562 0.421,-0.766 0.274,-0.203 0.641,-0.316 1.024,-0.316 0.383,0 0.75,0.113 1.019,0.316 0.274,0.204 0.426,0.477 0.426,0.766 z"
         style="fill:#4c4ce6;fill-opacity:1;fill-rule:evenodd;stroke:none"
         id="path274773"
         inkscape:connector-curvature="0" /><path
         d="m 177.746,106.867 c 0,0.285 -0.152,0.563 -0.426,0.766 -0.269,0.203 -0.636,0.316 -1.019,0.316 -0.383,0 -0.75,-0.113 -1.024,-0.316 -0.269,-0.203 -0.422,-0.481 -0.422,-0.766 0,-0.285 0.153,-0.562 0.422,-0.765 0.274,-0.204 0.641,-0.317 1.024,-0.317 0.383,0 0.75,0.113 1.019,0.317 0.274,0.203 0.426,0.48 0.426,0.765 z"
         style="fill:#4c4ce6;fill-opacity:1;fill-rule:evenodd;stroke:none"
         id="path274775"
         inkscape:connector-curvature="0" /><path
         d="m 182.375,110.828 c 0,0.285 -0.148,0.559 -0.422,0.762 -0.269,0.203 -0.637,0.316 -1.019,0.316 -0.383,0 -0.754,-0.113 -1.024,-0.316 -0.269,-0.203 -0.422,-0.477 -0.422,-0.762 0,-0.289 0.153,-0.562 0.422,-0.765 0.27,-0.204 0.641,-0.317 1.024,-0.317 0.382,0 0.75,0.113 1.019,0.317 0.274,0.203 0.422,0.476 0.422,0.765 z"
         style="fill:#4c4ce6;fill-opacity:1;fill-rule:evenodd;stroke:none"
         id="path274777"
         inkscape:connector-curvature="0" /><path
         d="m 187.672,115.281 c 0,0.285 -0.152,0.563 -0.426,0.766 -0.269,0.203 -0.637,0.316 -1.019,0.316 -0.383,0 -0.754,-0.113 -1.024,-0.316 -0.269,-0.203 -0.422,-0.481 -0.422,-0.766 0,-0.285 0.153,-0.562 0.422,-0.765 0.27,-0.203 0.641,-0.317 1.024,-0.317 0.382,0 0.75,0.114 1.019,0.317 0.274,0.203 0.426,0.48 0.426,0.765 z"
         style="fill:#4c4ce6;fill-opacity:1;fill-rule:evenodd;stroke:none"
         id="path274779"
         inkscape:connector-curvature="0" /><path
         d="m 192.965,119.734 c 0,0.289 -0.152,0.563 -0.426,0.766 -0.269,0.203 -0.637,0.316 -1.019,0.316 -0.383,0 -0.75,-0.113 -1.024,-0.316 -0.269,-0.203 -0.422,-0.477 -0.422,-0.766 0,-0.285 0.153,-0.558 0.422,-0.761 0.274,-0.203 0.641,-0.317 1.024,-0.317 0.382,0 0.75,0.114 1.019,0.317 0.274,0.203 0.426,0.476 0.426,0.761 z"
         style="fill:#4c4ce6;fill-opacity:1;fill-rule:evenodd;stroke:none"
         id="path274781"
         inkscape:connector-curvature="0" /><path
         d="m 197.594,124.191 c 0,0.286 -0.153,0.563 -0.422,0.762 -0.27,0.203 -0.637,0.317 -1.024,0.317 -0.382,0 -0.75,-0.114 -1.019,-0.317 -0.274,-0.199 -0.422,-0.476 -0.422,-0.762 0,-0.289 0.148,-0.562 0.422,-0.765 0.269,-0.203 0.637,-0.317 1.019,-0.317 0.387,0 0.754,0.114 1.024,0.317 0.269,0.203 0.422,0.476 0.422,0.765 z"
         style="fill:#4c4ce6;fill-opacity:1;fill-rule:evenodd;stroke:none"
         id="path274783"
         inkscape:connector-curvature="0" /><path
         d="m 202.887,129.141 c 0,0.285 -0.153,0.562 -0.422,0.761 -0.27,0.203 -0.637,0.317 -1.02,0.317 -0.386,0 -0.754,-0.114 -1.023,-0.317 -0.27,-0.199 -0.422,-0.476 -0.422,-0.761 0,-0.289 0.152,-0.563 0.422,-0.766 0.269,-0.203 0.637,-0.316 1.023,-0.316 0.383,0 0.75,0.113 1.02,0.316 0.269,0.203 0.422,0.477 0.422,0.766 z"
         style="fill:#4c4ce6;fill-opacity:1;fill-rule:evenodd;stroke:none"
         id="path274785"
         inkscape:connector-curvature="0" /><path
         d="m 208.844,134.586 c 0,0.285 -0.153,0.559 -0.422,0.762 -0.274,0.203 -0.641,0.316 -1.024,0.316 -0.382,0 -0.75,-0.113 -1.023,-0.316 -0.27,-0.203 -0.422,-0.477 -0.422,-0.762 0,-0.289 0.152,-0.563 0.422,-0.766 0.273,-0.203 0.641,-0.316 1.023,-0.316 0.383,0 0.75,0.113 1.024,0.316 0.269,0.203 0.422,0.477 0.422,0.766 z"
         style="fill:#4c4ce6;fill-opacity:1;fill-rule:evenodd;stroke:none"
         id="path274787"
         inkscape:connector-curvature="0" /><text
         transform="matrix(1,0,0,-0.93691406,70.42873,126.53361)"
         style="font-variant:normal;font-weight:normal;font-size:8.53866959px;font-family:'Times New Roman';-inkscape-font-specification:TimesNewRomanPSMT;writing-mode:lr-tb;fill:#000000;fill-opacity:1;fill-rule:nonzero;stroke:none"
         id="text274789"><tspan
           x="0 4.7475004 8.0690432 11.851674 16.12101 20.390345 24.659679 28.929014 33.198349 35.56356 39.346191 43.615528 45.98074 48.345951 52.102962 54.468178 56.602844 59.44622 62.289597 66.558929 73.193481 75.328148 78.171524 80.536736"
           y="0"
           sodipodi:role="line"
           id="tspan274791">Pseudopotential from fit</tspan><tspan
           x="0 7.5908775 11.860212 16.129547 19.912178 22.27739 24.412058 28.681393 31.524769 35.3074 39.576736 41.941948 45.724579 48.08979 50.429386 54.698719"
           y="10.053379"
           sodipodi:role="line"
           id="tspan274793">Model prediction</tspan><tspan
           x="0.86294359 5.1664333 7.3011007 11.570436 13.935647 17.257191 21.526525 23.891737 27.674368 31.431383 35.214012 41.84856 45.631191 49.900524 52.265736 54.400406 57.243782 60.087158 64.356491 70.991043 73.12571 75.969086 78.334297"
           y="30.125086"
           sodipodi:role="line"
           id="tspan274795">y displacement from fit</tspan><tspan
           x="-0.00253598 7.5883417 11.857677 16.127012 19.909643 22.274855 24.409521 28.678856 31.522234 35.304863 39.5742 41.939411 45.722042 48.087254 50.426849 54.696182"
           y="40.922634"
           sodipodi:role="line"
           id="tspan274797">Model prediction</tspan></text>
<path
         d="m 58.484,90.922 c 0,0.234 -0.125,0.461 -0.347,0.629 -0.227,0.168 -0.532,0.262 -0.848,0.262 -0.316,0 -0.621,-0.094 -0.844,-0.262 -0.222,-0.168 -0.351,-0.395 -0.351,-0.629 0,-0.238 0.129,-0.465 0.351,-0.633 0.223,-0.168 0.528,-0.262 0.844,-0.262 0.316,0 0.621,0.094 0.848,0.262 0.222,0.168 0.347,0.395 0.347,0.633 z"
         style="fill:#4c4ce6;fill-opacity:1;fill-rule:evenodd;stroke:none"
         id="path274799"
         inkscape:connector-curvature="0" /><path
         d="m 63.445,90.922 c 0,0.234 -0.125,0.461 -0.351,0.629 -0.223,0.168 -0.528,0.262 -0.844,0.262 -0.316,0 -0.621,-0.094 -0.844,-0.262 -0.226,-0.168 -0.351,-0.395 -0.351,-0.629 0,-0.238 0.125,-0.465 0.351,-0.633 0.223,-0.168 0.528,-0.262 0.844,-0.262 0.316,0 0.621,0.094 0.844,0.262 0.226,0.168 0.351,0.395 0.351,0.633 z"
         style="fill:#4c4ce6;fill-opacity:1;fill-rule:evenodd;stroke:none"
         id="path274801"
         inkscape:connector-curvature="0" /><path
         d="m 68.402,90.871 c 0,0.238 -0.125,0.465 -0.347,0.633 -0.223,0.168 -0.528,0.262 -0.844,0.262 -0.32,0 -0.621,-0.094 -0.848,-0.262 -0.222,-0.168 -0.347,-0.395 -0.347,-0.633 0,-0.238 0.125,-0.465 0.347,-0.633 0.227,-0.168 0.528,-0.261 0.848,-0.261 0.316,0 0.621,0.093 0.844,0.261 0.222,0.168 0.347,0.395 0.347,0.633 z"
         style="fill:#4c4ce6;fill-opacity:1;fill-rule:evenodd;stroke:none"
         id="path274803"
         inkscape:connector-curvature="0" /><path
         d="m 56.137,119.191 0,0.329 5.261,0 0,-0.653 -5.261,0 0,0.324 z"
         style="fill:#121cea;fill-opacity:1;fill-rule:nonzero;stroke:none"
         id="path274805"
         inkscape:connector-curvature="0" /><path
         d="m 63.336,119.195 0,0.325 5.262,0 0,-0.653 -5.262,0 0,0.328 z"
         style="fill:#121cea;fill-opacity:1;fill-rule:nonzero;stroke:none"
         id="path274807"
         inkscape:connector-curvature="0" /><text
         transform="matrix(0,1,1,0,232.19983,43.936382)"
         style="font-variant:normal;font-weight:normal;font-size:8px;font-family:'Times New Roman';-inkscape-font-specification:TimesNewRomanPSMT;writing-mode:lr-tb;fill:#000000;fill-opacity:1;fill-rule:nonzero;stroke:none"
         id="text274809"><tspan
           x="0 5.776 7.9920001 11.104 15.104 17.32 20.864 24.408001 27.952 34.167999 37.712002 41.712002 43.928001 45.928001 47.928001 51.928001 53.928001"
           y="0"
           sodipodi:role="line"
           id="tspan274811">Displacement, y (</tspan></text>
<text
         transform="matrix(0,1,1,0,232.19983,100.55238)"
         style="font-variant:normal;font-weight:normal;font-size:8px;font-family:'Times New Roman';-inkscape-font-specification:TimesNewRomanPSMT;writing-mode:lr-tb;fill:#000000;fill-opacity:1;fill-rule:nonzero;stroke:none"
         id="text274813"><tspan
           x="0"
           y="0"
           id="tspan274815">μ</tspan></text>
<text
         transform="matrix(0,1,1,0,232.19983,104.84038)"
         style="font-variant:normal;font-weight:normal;font-size:8px;font-family:'Times New Roman';-inkscape-font-specification:TimesNewRomanPSMT;writing-mode:lr-tb;fill:#000000;fill-opacity:1;fill-rule:nonzero;stroke:none"
         id="text274817"><tspan
           x="0 6.2160001"
           y="0"
           sodipodi:role="line"
           id="tspan274819">m)</tspan><tspan
           x="-61.206833 -56.758831 -53.646832 -50.102833 -46.102833 -42.102833 -38.102833 -34.102833 -30.102833 -27.886831 -24.342833 -20.342833 -18.126831 -15.910832 -12.390832 -10.174832 -8.1748323 -5.5108318 0.70516801 6.505168"
           y="-222.04482"
           sodipodi:role="line"
           id="tspan274821">Pseudopotential (mV)</tspan></text>
<path
         d="m 209.758,138.23 4.461,0 0,-0.559 -4.461,0 0,0.559 z"
         style="fill:#ffffff;fill-opacity:1;fill-rule:nonzero;stroke:none"
         id="path274823"
         inkscape:connector-curvature="0" /><text
         transform="matrix(1,0,0,-1,80.307672,5.469488)"
         style="font-variant:normal;font-weight:normal;font-size:8px;font-family:'Times New Roman';-inkscape-font-specification:TimesNewRomanPSMT;writing-mode:lr-tb;fill:#000000;fill-opacity:1;fill-rule:nonzero;stroke:none"
         id="text274825"><tspan
           x="0"
           y="0"
           id="tspan274827">E</tspan><tspan
           x="5.9568882"
           y="2.219728"
           id="tspan274829">y</tspan><tspan
           x="11.607056 14.831056 17.519056 21.815056 24.495056 29.343056 31.759056 34.991055 39.831055 46.823055 49.511055 57.039055"
           y="0"
           sodipodi:role="line"
           id="tspan274831">field (kV/m)</tspan><tspan
           x="-36.642193 -33.978191 -29.978191 -27.978191 -9.2181921 -6.5541921 -2.5541921 -0.55419201 18.445808 21.109808 25.109808 27.109808 -64.30619 -61.642193 -57.642193 -55.642193"
           y="-8.5305681"
           sodipodi:role="line"
           id="tspan274833">-1.5-1.0-0.5-2.0</tspan></text>
<g
         id="g274835"
         transform="matrix(1,0,0,-1,0,144)"><path
           d="m 22.141,122.215 0,-115.817"
           style="fill:none;stroke:#000000;stroke-width:0.75;stroke-linecap:square;stroke-linejoin:miter;stroke-miterlimit:3.25;stroke-dasharray:none;stroke-opacity:1"
           id="path274837"
           inkscape:connector-curvature="0" /></g><g
         id="g274839"
         transform="matrix(1,0,0,-1,0,144)"><path
           d="m 22.141,6.398 193.531,0"
           style="fill:none;stroke:#000000;stroke-width:0.75;stroke-linecap:square;stroke-linejoin:miter;stroke-miterlimit:3.25;stroke-dasharray:none;stroke-opacity:1"
           id="path274841"
           inkscape:connector-curvature="0" /></g><g
         id="g274843"
         transform="matrix(1,0,0,-1,0,144)"><path
           d="m 19.59,119.898 2.609,0"
           style="fill:none;stroke:#000000;stroke-width:0.75;stroke-linecap:butt;stroke-linejoin:miter;stroke-miterlimit:3.25;stroke-dasharray:none;stroke-opacity:1"
           id="path274845"
           inkscape:connector-curvature="0" /></g><g
         id="g274847"
         transform="matrix(1,0,0,-1,0,144)"><path
           d="m 19.59,95.02 2.609,0"
           style="fill:none;stroke:#000000;stroke-width:0.75;stroke-linecap:butt;stroke-linejoin:miter;stroke-miterlimit:3.25;stroke-dasharray:none;stroke-opacity:1"
           id="path274849"
           inkscape:connector-curvature="0" /></g><g
         id="g274851"
         transform="matrix(1,0,0,-1,0,144)"><path
           d="m 19.59,70.141 2.609,0"
           style="fill:none;stroke:#000000;stroke-width:0.75;stroke-linecap:butt;stroke-linejoin:miter;stroke-miterlimit:3.25;stroke-dasharray:none;stroke-opacity:1"
           id="path274853"
           inkscape:connector-curvature="0" /></g><g
         id="g274855"
         transform="matrix(1,0,0,-1,0,144)"><path
           d="m 19.59,45.266 2.609,0"
           style="fill:none;stroke:#000000;stroke-width:0.75;stroke-linecap:butt;stroke-linejoin:miter;stroke-miterlimit:3.25;stroke-dasharray:none;stroke-opacity:1"
           id="path274857"
           inkscape:connector-curvature="0" /></g><g
         id="g274859"
         transform="matrix(1,0,0,-1,0,144)"><path
           d="m 19.59,20.387 2.609,0"
           style="fill:none;stroke:#000000;stroke-width:0.75;stroke-linecap:butt;stroke-linejoin:miter;stroke-miterlimit:3.25;stroke-dasharray:none;stroke-opacity:1"
           id="path274861"
           inkscape:connector-curvature="0" /></g><g
         id="g274863"
         transform="matrix(1,0,0,-1,0,144)"><path
           d="m 215.672,122.289 -193.535,0"
           style="fill:none;stroke:#000000;stroke-width:0.75;stroke-linecap:square;stroke-linejoin:miter;stroke-miterlimit:3.25;stroke-dasharray:none;stroke-opacity:1"
           id="path274865"
           inkscape:connector-curvature="0" /></g><g
         id="g274867"
         transform="matrix(1,0,0,-1,0,144)"><path
           d="m 215.672,6.473 0,115.816"
           style="fill:none;stroke:#000000;stroke-width:0.75;stroke-linecap:square;stroke-linejoin:miter;stroke-miterlimit:3.25;stroke-dasharray:none;stroke-opacity:1"
           id="path274869"
           inkscape:connector-curvature="0" /></g><g
         id="g274871"
         transform="matrix(1,0,0,-1,0,144)"><path
           d="m 49.785,124.172 0,-1.953"
           style="fill:none;stroke:#000000;stroke-width:0.75;stroke-linecap:butt;stroke-linejoin:miter;stroke-miterlimit:3.25;stroke-dasharray:none;stroke-opacity:1"
           id="path274873"
           inkscape:connector-curvature="0" /></g><g
         id="g274875"
         transform="matrix(1,0,0,-1,0,144)"><path
           d="m 77.434,124.172 0,-1.953"
           style="fill:none;stroke:#000000;stroke-width:0.75;stroke-linecap:butt;stroke-linejoin:miter;stroke-miterlimit:3.25;stroke-dasharray:none;stroke-opacity:1"
           id="path274877"
           inkscape:connector-curvature="0" /></g><g
         id="g274879"
         transform="matrix(1,0,0,-1,0,144)"><path
           d="m 105.082,124.172 0,-1.953"
           style="fill:none;stroke:#000000;stroke-width:0.75;stroke-linecap:butt;stroke-linejoin:miter;stroke-miterlimit:3.25;stroke-dasharray:none;stroke-opacity:1"
           id="path274881"
           inkscape:connector-curvature="0" /></g><g
         id="g274883"
         transform="matrix(1,0,0,-1,0,144)"><path
           d="m 132.73,124.172 0,-1.953"
           style="fill:none;stroke:#000000;stroke-width:0.75;stroke-linecap:butt;stroke-linejoin:miter;stroke-miterlimit:3.25;stroke-dasharray:none;stroke-opacity:1"
           id="path274885"
           inkscape:connector-curvature="0" /></g><g
         id="g274887"
         transform="matrix(1,0,0,-1,0,144)"><path
           d="m 160.379,124.172 0,-1.953"
           style="fill:none;stroke:#000000;stroke-width:0.75;stroke-linecap:butt;stroke-linejoin:miter;stroke-miterlimit:3.25;stroke-dasharray:none;stroke-opacity:1"
           id="path274889"
           inkscape:connector-curvature="0" /></g><g
         id="g274891"
         transform="matrix(1,0,0,-1,0,144)"><path
           d="m 188.023,124.172 0,-1.953"
           style="fill:none;stroke:#000000;stroke-width:0.75;stroke-linecap:butt;stroke-linejoin:miter;stroke-miterlimit:3.25;stroke-dasharray:none;stroke-opacity:1"
           id="path274893"
           inkscape:connector-curvature="0" /></g><g
         id="g274895"
         transform="matrix(1,0,0,-1,0,144)"><path
           d="m 218.277,116.191 -2.605,0"
           style="fill:none;stroke:#000000;stroke-width:0.75;stroke-linecap:butt;stroke-linejoin:miter;stroke-miterlimit:3.25;stroke-dasharray:none;stroke-opacity:1"
           id="path274897"
           inkscape:connector-curvature="0" /></g><g
         id="g274899"
         transform="matrix(1,0,0,-1,0,144)"><path
           d="m 218.277,91.813 -2.605,0"
           style="fill:none;stroke:#000000;stroke-width:0.75;stroke-linecap:butt;stroke-linejoin:miter;stroke-miterlimit:3.25;stroke-dasharray:none;stroke-opacity:1"
           id="path274901"
           inkscape:connector-curvature="0" /></g><g
         id="g274903"
         transform="matrix(1,0,0,-1,0,144)"><path
           d="m 218.277,67.43 -2.605,0"
           style="fill:none;stroke:#000000;stroke-width:0.75;stroke-linecap:butt;stroke-linejoin:miter;stroke-miterlimit:3.25;stroke-dasharray:none;stroke-opacity:1"
           id="path274905"
           inkscape:connector-curvature="0" /></g><g
         id="g274907"
         transform="matrix(1,0,0,-1,0,144)"><path
           d="m 218.277,43.047 -2.605,0"
           style="fill:none;stroke:#000000;stroke-width:0.75;stroke-linecap:butt;stroke-linejoin:miter;stroke-miterlimit:3.25;stroke-dasharray:none;stroke-opacity:1"
           id="path274909"
           inkscape:connector-curvature="0" /></g><g
         id="g274911"
         transform="matrix(1,0,0,-1,0,144)"><path
           d="m 218.195,18.492 -2.609,0"
           style="fill:none;stroke:#000000;stroke-width:0.75;stroke-linecap:butt;stroke-linejoin:miter;stroke-miterlimit:3.25;stroke-dasharray:none;stroke-opacity:1"
           id="path274913"
           inkscape:connector-curvature="0" /></g><g
         id="g274915"
         transform="matrix(1,0,0,-1,0,144)"><path
           d="m 130.957,71.875 23.289,0"
           style="fill:none;stroke:#000000;stroke-width:0.80000001;stroke-linecap:butt;stroke-linejoin:miter;stroke-miterlimit:4;stroke-dasharray:none;stroke-opacity:1"
           id="path274917"
           inkscape:connector-curvature="0" /></g><g
         id="g274919"
         transform="matrix(-1,0,0,1,0,144)"><path
           d="m -151.047,-71.875 1.602,-1.602 -5.602,1.602 5.602,1.602 -1.602,-1.602 z"
           style="fill:#000000;fill-opacity:1;fill-rule:evenodd;stroke:#000000;stroke-width:0.40000001;stroke-linecap:butt;stroke-linejoin:miter;stroke-miterlimit:4;stroke-dasharray:none;stroke-opacity:1"
           id="path274921"
           inkscape:connector-curvature="0" /></g><g
         id="g274923"
         transform="matrix(1,0,0,-1,0,144)"><path
           d="m 54.336,71.875 -24.699,0"
           style="fill:none;stroke:#000000;stroke-width:0.80000001;stroke-linecap:butt;stroke-linejoin:miter;stroke-miterlimit:4;stroke-dasharray:none;stroke-opacity:1"
           id="path274925"
           inkscape:connector-curvature="0" /></g><g
         id="g274927"
         transform="matrix(1,0,0,-1,0,144)"><path
           d="m 32.836,71.875 1.602,-1.602 -5.602,1.602 5.602,1.602 -1.602,-1.602 z"
           style="fill:#000000;fill-opacity:1;fill-rule:evenodd;stroke:#000000;stroke-width:0.40000001;stroke-linecap:butt;stroke-linejoin:miter;stroke-miterlimit:4;stroke-dasharray:none;stroke-opacity:1"
           id="path274929"
           inkscape:connector-curvature="0" /></g></g></g></svg>